<?xml version="1.0" encoding="UTF-8"?>
<svg width="500px" height="500px" viewBox="0 0 500 500" version="1.1" xmlns="http://www.w3.org/2000/svg" xmlns:xlink="http://www.w3.org/1999/xlink">
    <title>BBBY_logo_google</title>
    <g id="Page-1" stroke="none" stroke-width="1" fill="none" fill-rule="evenodd">
        <g id="BBBY_logo_google">
            <rect id="--color-flagship-blue" fill="#1A4E8A" x="0" y="0" width="500" height="500"></rect>
            <g id="Bed-Bath-&amp;-Beyond" transform="translate(31.000000, 182.000000)" fill="#FFFFFF">
                <path d="M430.941549,84.2346907 C431.864922,84.2346907 433.480998,84.4066487 433.480998,83.2308462 C433.480998,82.4683708 432.470251,82.3288511 431.667106,82.3288511 L429.687902,82.3288511 L429.687902,84.2346907 L430.941549,84.2346907 L430.941549,84.2346907 Z M434.419399,88.6846726 L433.165751,88.6846726 L430.941549,85.2737639 L429.687902,85.2737639 L429.687902,88.6846726 L428.644652,88.6846726 L428.644652,81.2869875 L431.87995,81.2869875 C433.216079,81.2869875 434.524597,81.6532268 434.524597,83.2454957 C434.524597,84.7003378 433.496026,85.2409767 432.174926,85.2734151 L434.419399,88.6843238 L434.419399,88.6846726 Z M436.959197,85.0296043 C436.959197,81.8454152 434.294278,79.3141784 431.182004,79.3141784 C428.066583,79.3141784 425.406908,81.8454152 425.406908,85.0296043 C425.406908,88.2186767 428.066583,90.7450303 431.181654,90.7450303 C434.294278,90.7450303 436.958847,88.2186767 436.958847,85.0296043 L436.959197,85.0296043 Z M424.363308,85.0296043 C424.363308,81.2726867 427.371083,78.275454 431.182004,78.275454 C434.992574,78.275454 438,81.2726867 438,85.0296043 C438,88.7893124 434.992574,91.7837547 431.181654,91.7837547 C427.371083,91.7837547 424.363658,88.7893124 424.363658,85.0296043 L424.363308,85.0296043 Z M364.699898,119.990459 L367.281985,119.990459 C381.110901,119.990459 391.749953,117.165185 391.749953,110.508001 C391.749953,103.377845 382.477086,100.353057 367.281985,100.353057 L364.699898,100.353057 L364.699898,119.990459 Z M323.057626,84.4778038 L365.460405,84.4778038 C403.910018,84.4778038 433.394672,91.9421096 433.394672,110.575319 C433.394672,125.641009 409.379653,135.19811 375.79155,135.19811 L323.057626,135.19811 L323.057626,84.4778038 Z M266.837465,84.5109397 L239.304754,84.5109397 L239.304754,135.228805 L266.735062,135.228805 L266.735062,109.427769 L291.025135,135.228805 L318.458239,135.228805 L318.458239,84.5109397 L291.025135,84.5109397 L291.025135,110.797853 L266.837465,84.5109397 Z M181.314738,110.241169 C181.314738,116.023913 186.996867,119.990111 195.126178,119.990111 C203.257936,119.990111 208.932726,116.023913 208.932726,110.241169 C208.932726,104.859893 203.648324,100.352708 195.126178,100.352708 C186.606479,100.352708 181.314738,104.859893 181.314738,110.241169 L181.314738,110.241169 Z M235.970199,109.969803 C235.970199,126.251059 217.654784,136 195.126178,136 C172.600019,136 154.282158,126.251059 154.282158,109.969803 C154.282158,94.027232 172.699975,83.6678917 195.126178,83.6678917 C217.554828,83.6678917 235.970199,94.027232 235.970199,109.969803 L235.970199,109.969803 Z" id="Shape"></path>
                <path d="M121.602048,84.4781526 L129.260936,97.7272953 L129.993832,97.7272953 C130.719389,96.1154936 131.355125,94.4984599 132.270808,92.951186 L137.194878,84.4781526 L165.280493,84.4781526 L141.753722,113.331182 L141.753722,135.196018 L117.315812,135.196018 L117.315812,113.331182 L93.3332961,84.4781526 L121.602048,84.4781526 Z M51.619027,84.4781526 L92.7181806,84.4781526 L92.7181806,98.3352526 L73.9928058,98.3352526 L73.9928058,103.17868 L91.0968619,103.17868 L91.0968619,116.363295 L73.9928058,116.363295 L73.9928058,121.34101 L93.3637024,121.34101 L93.3637024,135.196018 L51.619027,135.196018 L51.619027,84.4781526 Z M19.0112637,123.087797 L21.310957,123.087797 C24.6535507,123.087797 29.4850035,123.022921 29.4850035,118.849885 C29.4850035,114.614415 24.2858793,114.68167 21.0156316,114.68167 L19.0112637,114.68167 L19.0112637,123.087797 L19.0112637,123.087797 Z M20.8653477,103.983709 C23.8430661,103.983709 27.1856598,103.716878 27.1856598,100.214235 C27.1856598,96.452085 23.3925638,96.7185677 20.420088,96.7185677 L19.0116132,96.7185677 L19.0116132,103.983709 L20.8653477,103.983709 Z M0.135605014,84.4781526 L23.8430661,84.4781526 C34.6869237,84.4781526 45.7586537,86.8301065 45.7586537,98.5347658 C45.7586537,102.974633 43.304133,107.347181 38.4024312,108.759818 L38.4024312,109.165821 C44.4976668,111.114214 48.3610117,115.147729 48.3610117,121.201839 C48.3610117,131.628498 37.661846,135.196018 27.8514524,135.196018 L0.135605014,135.196018 L0.135605014,84.4781526 L0.135605014,84.4781526 Z M396.887216,25.6534935 C400.282584,22.982737 404.938938,20.2195487 404.938938,15.3217084 C404.938938,10.6003606 401.535882,8.01680392 397.062314,8.01680392 C393.041346,8.01680392 389.548468,10.8692849 389.548468,15.1420767 C389.548468,18.5278719 391.607707,21.0245775 393.579572,23.5157024 L395.808667,26.3685321 L396.887216,25.6534935 Z M393.216794,37.4129143 C388.567779,40.6194266 380.963762,45.1587011 380.963762,51.5741673 C380.963762,57.9871919 387.041523,63.9541021 393.486955,63.9541021 C399.7496,63.9541021 404.756151,59.2355447 408.959907,55.0471623 L394.022385,36.8747169 L393.216794,37.4129143 L393.216794,37.4129143 Z M413.968904,60.9244311 C408.869736,66.8941317 401.713776,71.4358479 393.75467,71.4358479 C382.485125,71.4358479 373.087488,63.2439467 373.087488,51.6638087 C373.087488,43.1109002 378.456817,38.4791939 384.899803,33.8502779 L389.105655,30.8230485 C385.260135,26.8094145 381.679533,21.8240256 381.679533,16.1211565 C381.679533,6.86053412 388.387438,1.42937968 397.242655,1.42937968 C405.474369,1.42937968 412.805427,6.59160984 412.805427,15.4113498 C412.805427,22.982737 406.187343,28.0602089 400.552745,32.1561595 L414.594505,49.0778105 L422.468682,39.9940294 L427.835565,45.5151741 L419.603502,55.1371525 L431.681086,70.0134442 L421.307652,70.0134442 L413.968904,60.9244311 L413.968904,60.9244311 Z M342.708819,29.9308198 L342.708819,2.85387616 L351.118427,2.85387616 L351.118427,70.0127466 L342.708819,70.0127466 L342.708819,37.766248 L310.596993,37.766248 L310.596993,70.0127466 L302.190181,70.0127466 L302.190181,2.85387616 L310.596993,2.85387616 L310.596993,29.9308198 L342.708819,29.9308198 Z M281.634837,70.0123978 L273.225579,70.0123978 L273.225579,10.5124632 L257.211955,10.5124632 L257.211955,2.85387616 L297.643219,2.85387616 L297.643219,10.5124632 L281.634837,10.5124632 L281.634837,70.0123978 Z" id="Shape"></path>
                <path d="M219.103801,53.1744587 L211.41241,70.0117002 L202.374755,70.0117002 L234.579548,0 L266.781545,70.0117002 L257.746337,70.0117002 L250.054946,53.1744587 L219.103801,53.1744587 Z M234.579548,18.3517282 L222.591785,45.5158717 L246.566612,45.5158717 L234.579548,18.3517282 Z" id="Shape"></path>
                <path d="M172.058996,62.5299544 L178.501633,62.5299544 C186.28564,62.5299544 194.420193,60.215322 194.420193,50.6854266 C194.420193,41.2455214 184.764627,39.2796883 177.248335,39.2796883 L172.058996,39.2796883 L172.058996,62.5299544 Z M172.058996,32.6029715 L174.20561,32.6029715 C182.167162,32.6029715 188.695425,30.9984945 188.695425,21.3765161 C188.695425,11.9366109 182.257682,10.3370171 174.383504,10.3370171 L172.058996,10.3370171 L172.058996,32.6029715 L172.058996,32.6029715 Z M163.649039,2.85248096 L171.880753,2.85248096 C184.58149,2.85248096 196.569253,6.14863468 196.569253,21.291409 C196.569253,26.1871565 193.884414,31.887584 189.322773,34.0274679 L189.322773,34.2043092 C197.287121,35.6319449 202.829102,43.3777317 202.829102,51.2159504 C202.829102,64.667048 191.292191,70.0113514 179.394599,70.0113514 L163.649039,70.0113514 L163.649039,2.85248096 Z M96.5979518,62.3545084 L99.5505064,62.3545084 C116.722365,62.3545084 131.574958,55.9362518 131.574958,36.4334858 C131.574958,16.8361951 116.722365,10.5103704 99.5505064,10.5103704 L96.5979518,10.5103704 L96.5979518,62.3545084 L96.5979518,62.3545084 Z M88.189043,2.85422496 L102.143079,2.85422496 C122.807815,2.85422496 139.984566,13.7196731 139.984566,36.0752688 C139.984566,58.9662716 123.1657,70.0134442 101.875363,70.0134442 L88.189043,70.0134442 L88.189043,2.85422496 L88.189043,2.85422496 Z M44.0912013,2.85352736 L80.3187098,2.85352736 L80.3187098,10.5121144 L52.5004596,10.5121144 L52.5004596,29.3075153 L79.5131181,29.3075153 L79.5131181,36.9661023 L52.5004596,36.9661023 L52.5004596,62.3538108 L80.3187098,62.3538108 L80.3187098,70.0123978 L44.0912013,70.0123978 L44.0912013,2.85352736 Z" id="Shape"></path>
                <path d="M0,2.85248096 L8.22926714,2.85248096 C20.9348977,2.85248096 32.9146221,6.14863468 32.9146221,21.2917578 C32.9146221,26.1875053 30.2325786,31.8879328 25.6737337,34.0278167 C33.6352858,35.6322937 39.1776165,43.3780805 39.1776165,51.2162992 C39.1776165,64.6673968 27.6403559,70.0117002 15.743113,70.0117002 L0,70.0117002 L0,2.85248096 Z M8.40925833,62.5303032 L14.8470015,62.5303032 C22.6313584,62.5303032 30.7729017,60.2156708 30.7729017,50.6857754 C30.7729017,41.2458702 21.1099959,39.2800371 13.5961501,39.2800371 L8.40960783,39.2800371 L8.40960783,62.5303032 L8.40925833,62.5303032 Z M8.40925833,32.6033203 L10.5509788,32.6033203 C18.5177733,32.6033203 25.0481333,30.9988433 25.0481333,21.3768649 C25.0481333,11.9369596 18.6027012,10.3373659 10.7362124,10.3373659 L8.40925833,10.3373659 L8.40925833,32.6033203 Z" id="Shape"></path>
            </g>
        </g>
    </g>
</svg>